<svg xmlns="http://www.w3.org/2000/svg" width="25.726" height="25.726" viewBox="0 0 25.726 25.726">
  <path id="Icon_metro-youtube" data-name="Icon metro-youtube" d="M9.936,1.928,8.2,5.376,6.46,1.928H4.243l3.133,5.46.018-.011v4.2H9v-4.2l.018.011,3.133-5.46ZM14.63,5.144a.815.815,0,0,1,.8.8V9.163a.8.8,0,1,1-1.608,0V5.948a.815.815,0,0,1,.8-.8Zm0-1.608a2.419,2.419,0,0,0-2.412,2.412V9.163a2.412,2.412,0,1,0,4.824,0V5.948A2.419,2.419,0,0,0,14.63,3.536Zm7.235,0v6.33c-.7.585-1.608.938-1.608-1.146V3.536H18.649v5.51h0c.025,1.329.305,3.722,3.213,1.776v.753h1.608V3.536H21.865Zm2.412,16.079a.8.8,0,0,0-.8.8v.8h1.608v-.8A.8.8,0,0,0,24.277,19.615Zm-7.235.8v4.221c.544.544,1.608.6,1.608-.2V20.67C18.649,19.866,17.845,19.615,17.041,20.418Zm11.124-3.88a3.343,3.343,0,0,0-3.287-3.224c-1.753-.087-5.765-.131-9.288-.131s-7.821.044-9.574.131a3.343,3.343,0,0,0-3.287,3.224c-.105,1.887-.158,2.571-.158,3.515s.053,2.359.158,4.246a3.343,3.343,0,0,0,3.287,3.224c1.753.087,6.05.131,9.574.131s7.535-.044,9.288-.131A3.343,3.343,0,0,0,28.165,24.3q.132-2.359.131-4.246c0-1.258-.044-1.942-.131-3.515ZM7.394,26.046H5.786V18.007H4.179V16.4H9v1.608H7.394Zm6.431,0H12.218v-.753C9.161,27.009,9.029,25.348,9,24.019H9v-4.4H10.61v4.43c0,.971.906.877,1.608.292V19.615h1.608Zm6.431-1.631c0,1.681-1.721,2.171-3.216.864v.767H15.434V16.4h1.608v2.613c1.608-1.608,3.216-1,3.216.6Zm6.431-3.193v.8H23.473v1.608a.8.8,0,0,0,1.608,0v-.8h1.608v.8a2.412,2.412,0,1,1-4.824,0V20.418a2.412,2.412,0,1,1,4.824,0v.8Z" transform="translate(-2.571 -1.928)" fill="#fff" opacity="0.8"/>
</svg>
