<svg xmlns="http://www.w3.org/2000/svg" width="28.288" height="28.288" viewBox="0 0 28.288 28.288">
  <path id="Icon_simple-instagram" data-name="Icon simple-instagram" d="M14.144,0C10.3,0,9.822.018,8.313.085A10.429,10.429,0,0,0,4.88.743,6.926,6.926,0,0,0,2.374,2.374,6.9,6.9,0,0,0,.743,4.88,10.4,10.4,0,0,0,.085,8.313C.014,9.822,0,10.3,0,14.144s.018,4.322.085,5.831a10.436,10.436,0,0,0,.658,3.433,6.936,6.936,0,0,0,1.631,2.506A6.916,6.916,0,0,0,4.88,27.545a10.442,10.442,0,0,0,3.433.658c1.509.071,1.988.085,5.831.085s4.322-.018,5.831-.085a10.466,10.466,0,0,0,3.433-.658,7.228,7.228,0,0,0,4.137-4.137,10.436,10.436,0,0,0,.658-3.433c.071-1.509.085-1.988.085-5.831S28.27,9.822,28.2,8.313a10.46,10.46,0,0,0-.658-3.433,6.942,6.942,0,0,0-1.631-2.506A6.891,6.891,0,0,0,23.408.743,10.405,10.405,0,0,0,19.975.085C18.466.014,17.986,0,14.144,0Zm0,2.546c3.775,0,4.225.019,5.716.084a7.793,7.793,0,0,1,2.625.489A4.654,4.654,0,0,1,25.17,5.8a7.809,7.809,0,0,1,.487,2.625c.067,1.492.083,1.94.083,5.716s-.018,4.225-.087,5.716a7.96,7.96,0,0,1-.5,2.625,4.491,4.491,0,0,1-1.06,1.629A4.413,4.413,0,0,1,22.47,25.17a7.867,7.867,0,0,1-2.634.487c-1.5.067-1.944.083-5.727.083s-4.227-.018-5.727-.087a8.02,8.02,0,0,1-2.635-.5A4.38,4.38,0,0,1,4.121,24.1,4.3,4.3,0,0,1,3.06,22.47a8.027,8.027,0,0,1-.5-2.634c-.053-1.485-.072-1.944-.072-5.709S2.512,9.9,2.565,8.4a8.018,8.018,0,0,1,.5-2.633A4.193,4.193,0,0,1,4.121,4.136,4.183,4.183,0,0,1,5.746,3.077a7.828,7.828,0,0,1,2.618-.5c1.5-.053,1.945-.071,5.727-.071l.053.035Zm0,4.335a7.263,7.263,0,1,0,7.263,7.263A7.262,7.262,0,0,0,14.144,6.881Zm0,11.978a4.715,4.715,0,1,1,4.715-4.715A4.713,4.713,0,0,1,14.144,18.859ZM23.392,6.595a1.7,1.7,0,1,1-1.7-1.7A1.7,1.7,0,0,1,23.392,6.595Z" fill="#fff" opacity="0.8"/>
</svg>
